<mxfile host="app.diagrams.net" agent="Mozilla/5.0 (Windows NT 10.0; Win64; x64) AppleWebKit/537.36 (KHTML, like Gecko) Chrome/134.0.0.0 Safari/537.36" version="26.1.0">
  <diagram name="第 1 页" id="gTQXZv0NuXA-8sjYNELq">
    <mxGraphModel dx="1185" dy="632" grid="1" gridSize="10" guides="1" tooltips="1" connect="1" arrows="1" fold="1" page="1" pageScale="1" pageWidth="827" pageHeight="1169" math="0" shadow="0">
      <root>
        <mxCell id="0" />
        <mxCell id="1" parent="0" />
        <mxCell id="Xo9IPWnEQ44u3oydRC4R-1" value="" style="rounded=0;whiteSpace=wrap;html=1;fillColor=#dae8fc;strokeColor=#6c8ebf;" parent="1" vertex="1">
          <mxGeometry x="280" y="220" width="420" height="350" as="geometry" />
        </mxCell>
        <mxCell id="Xo9IPWnEQ44u3oydRC4R-2" value="header" style="rounded=0;whiteSpace=wrap;html=1;fillColor=#1ba1e2;fontColor=#ffffff;strokeColor=#006EAF;" parent="1" vertex="1">
          <mxGeometry x="280" y="220" width="420" height="30" as="geometry" />
        </mxCell>
        <mxCell id="Xo9IPWnEQ44u3oydRC4R-3" value="logo" style="text;html=1;align=center;verticalAlign=middle;whiteSpace=wrap;rounded=0;" parent="1" vertex="1">
          <mxGeometry x="280" y="220" width="60" height="30" as="geometry" />
        </mxCell>
        <mxCell id="Xo9IPWnEQ44u3oydRC4R-4" value="背景" style="text;html=1;align=center;verticalAlign=middle;whiteSpace=wrap;rounded=0;" parent="1" vertex="1">
          <mxGeometry x="290" y="270" width="60" height="30" as="geometry" />
        </mxCell>
        <mxCell id="Xo9IPWnEQ44u3oydRC4R-5" value="" style="rounded=1;whiteSpace=wrap;html=1;arcSize=9;fillColor=#647687;strokeColor=#314354;fontColor=#ffffff;" parent="1" vertex="1">
          <mxGeometry x="350" y="275" width="290" height="240" as="geometry" />
        </mxCell>
        <mxCell id="Xo9IPWnEQ44u3oydRC4R-7" value="form" style="text;html=1;align=center;verticalAlign=middle;whiteSpace=wrap;rounded=0;" parent="1" vertex="1">
          <mxGeometry x="305" y="380" width="30" height="30" as="geometry" />
        </mxCell>
        <mxCell id="Xo9IPWnEQ44u3oydRC4R-8" value="" style="endArrow=none;dashed=1;html=1;dashPattern=1 3;strokeWidth=2;rounded=0;" parent="1" source="Xo9IPWnEQ44u3oydRC4R-7" target="Xo9IPWnEQ44u3oydRC4R-5" edge="1">
          <mxGeometry width="50" height="50" relative="1" as="geometry">
            <mxPoint x="430" y="420" as="sourcePoint" />
            <mxPoint x="480" y="370" as="targetPoint" />
          </mxGeometry>
        </mxCell>
        <mxCell id="Xo9IPWnEQ44u3oydRC4R-10" value="魚種" style="rounded=1;whiteSpace=wrap;html=1;fillColor=#f5f5f5;fontColor=#333333;strokeColor=#666666;" parent="1" vertex="1">
          <mxGeometry x="362.5" y="320" width="265" height="30" as="geometry" />
        </mxCell>
        <mxCell id="Xo9IPWnEQ44u3oydRC4R-12" value="魚隻數量" style="rounded=1;whiteSpace=wrap;html=1;fillColor=#f5f5f5;fontColor=#333333;strokeColor=#666666;" parent="1" vertex="1">
          <mxGeometry x="362.5" y="360" width="265" height="30" as="geometry" />
        </mxCell>
        <mxCell id="Xo9IPWnEQ44u3oydRC4R-14" value="選擇AI模型(下拉式選單)" style="rounded=1;whiteSpace=wrap;html=1;fillColor=#f5f5f5;fontColor=#333333;strokeColor=#666666;" parent="1" vertex="1">
          <mxGeometry x="362.5" y="405" width="265" height="45" as="geometry" />
        </mxCell>
        <mxCell id="Xo9IPWnEQ44u3oydRC4R-15" value="返回" style="rounded=1;whiteSpace=wrap;html=1;fillColor=#f8cecc;strokeColor=#b85450;" parent="1" vertex="1">
          <mxGeometry x="380" y="460" width="67.5" height="40" as="geometry" />
        </mxCell>
        <mxCell id="Xo9IPWnEQ44u3oydRC4R-16" value="確定" style="rounded=1;whiteSpace=wrap;html=1;fillColor=#d5e8d4;strokeColor=#82b366;" parent="1" vertex="1">
          <mxGeometry x="530" y="460" width="67.5" height="40" as="geometry" />
        </mxCell>
        <mxCell id="Xo9IPWnEQ44u3oydRC4R-17" value="按下確定後送出表單給AI&lt;font style=&quot;color: light-dark(rgb(250, 0, 0), rgb(237, 237, 237));&quot;&gt;判斷初始化設定&lt;/font&gt;" style="text;html=1;align=center;verticalAlign=middle;whiteSpace=wrap;rounded=0;" parent="1" vertex="1">
          <mxGeometry x="385" y="530" width="220" height="30" as="geometry" />
        </mxCell>
        <mxCell id="W2BHJOSh_r-Xm9cM-zzG-37" value="水族箱名稱" style="rounded=1;whiteSpace=wrap;html=1;fillColor=#f5f5f5;fontColor=#333333;strokeColor=#666666;" vertex="1" parent="1">
          <mxGeometry x="362.5" y="290" width="265" height="20" as="geometry" />
        </mxCell>
      </root>
    </mxGraphModel>
  </diagram>
</mxfile>
